<svg width="22" height="17" viewBox="0 0 22 17" fill="none" xmlns="http://www.w3.org/2000/svg">
<path d="M14.9 1.54217C14.73 1.54217 14.58 1.63217 14.49 1.77217L14.42 1.92217L9.24 13.5722C9.08 13.8622 8.98 14.1822 8.98 14.5322C8.98 15.6422 9.88 16.5422 10.99 16.5422C11.95 16.5422 12.76 15.8622 12.95 14.9522L12.96 14.9222L15.4 2.04217C15.4 1.76217 15.18 1.54217 14.9 1.54217ZM0 5.54217L2 7.54217C4.88 4.66217 8.79 3.46217 12.53 3.92217L14 0.5C9.17 -0.36 3.74 1.81217 0 5.54217ZM20 7.54217L22 5.54217C20.4188 3.95944 18.511 2.74106 16.41 1.97217L15.88 4.79217C17.38 5.41217 18.78 6.32217 20 7.54217ZM16 11.5422L18 9.54217C17.2 8.74217 16.3 8.12217 15.34 7.65217L14.79 10.5722C15.21 10.8422 15.62 11.1622 16 11.5422ZM4 9.54217L6 11.5422C7.09101 10.4563 8.50538 9.75435 10.03 9.54217L11.31 6.66217C8.68 6.58217 6.01 7.53217 4 9.54217Z" fill="#42E00B"/>
</svg>
