<svg width="21" height="16" viewBox="0 0 21 16" fill="none" xmlns="http://www.w3.org/2000/svg">
<mask id="mask0_100_2784" style="mask-type:luminance" maskUnits="userSpaceOnUse" x="0" y="0" width="21" height="16">
<path d="M12.3334 0H8.33337C4.56237 0 2.67637 -1.19209e-07 1.50537 1.172C0.661374 2.015 0.425374 3.229 0.359374 5.25H20.3074C20.2414 3.229 20.0054 2.015 19.1614 1.172C17.9904 -1.19209e-07 16.1044 0 12.3334 0ZM8.33337 16H12.3334C16.1044 16 17.9904 16 19.1614 14.828C20.3334 13.657 20.3334 11.771 20.3334 8C20.3334 7.558 20.3334 7.142 20.3314 6.75H0.335374C0.333374 7.142 0.333374 7.558 0.333374 8C0.333374 11.771 0.333374 13.657 1.50537 14.828C2.67637 16 4.56237 16 8.33337 16Z" fill="white"/>
<path fill-rule="evenodd" clip-rule="evenodd" d="M3.58337 12C3.58337 11.8011 3.66239 11.6103 3.80304 11.4697C3.9437 11.329 4.13446 11.25 4.33337 11.25H8.33337C8.53229 11.25 8.72305 11.329 8.8637 11.4697C9.00436 11.6103 9.08337 11.8011 9.08337 12C9.08337 12.1989 9.00436 12.3897 8.8637 12.5303C8.72305 12.671 8.53229 12.75 8.33337 12.75H4.33337C4.13446 12.75 3.9437 12.671 3.80304 12.5303C3.66239 12.3897 3.58337 12.1989 3.58337 12ZM10.0834 12C10.0834 11.8011 10.1624 11.6103 10.303 11.4697C10.4437 11.329 10.6345 11.25 10.8334 11.25H12.3334C12.5323 11.25 12.7231 11.329 12.8637 11.4697C13.0044 11.6103 13.0834 11.8011 13.0834 12C13.0834 12.1989 13.0044 12.3897 12.8637 12.5303C12.7231 12.671 12.5323 12.75 12.3334 12.75H10.8334C10.6345 12.75 10.4437 12.671 10.303 12.5303C10.1624 12.3897 10.0834 12.1989 10.0834 12Z" fill="black"/>
</mask>
<g mask="url(#mask0_100_2784)">
<path d="M-1.66663 -4H22.3334V20H-1.66663V-4Z" fill="#775CE7"/>
</g>
</svg>
