<svg width="8" height="15" viewBox="0 0 8 15" fill="none" xmlns="http://www.w3.org/2000/svg">
<path d="M1.94249 14.5136C1.70884 14.5141 1.48241 14.4327 1.30249 14.2836C1.20124 14.1997 1.11753 14.0966 1.05618 13.9802C0.99483 13.8639 0.957034 13.7366 0.944958 13.6056C0.932882 13.4746 0.946764 13.3425 0.985809 13.2169C1.02485 13.0913 1.08829 12.9747 1.17249 12.8736L5.65249 7.51361L1.3325 2.14361C1.24943 2.04132 1.1874 1.92363 1.14997 1.79729C1.11253 1.67095 1.10044 1.53846 1.11438 1.40743C1.12832 1.2764 1.16802 1.14942 1.23119 1.03378C1.29436 0.918147 1.37977 0.816135 1.48249 0.733612C1.58596 0.642576 1.70713 0.573908 1.83839 0.531919C1.96965 0.48993 2.10818 0.475527 2.24527 0.489611C2.38236 0.503696 2.51506 0.545966 2.63505 0.613768C2.75503 0.68157 2.8597 0.77344 2.94249 0.883612L7.77249 6.88361C7.91958 7.06255 7.99998 7.28699 7.99998 7.51861C7.99998 7.75024 7.91958 7.97468 7.77249 8.15361L2.77249 14.1536C2.67218 14.2746 2.54474 14.3703 2.40053 14.4328C2.25632 14.4954 2.0994 14.5231 1.94249 14.5136Z" fill="#BDB2FF"/>
</svg>
