<svg width="10" height="6" viewBox="0 0 10 6" fill="none" xmlns="http://www.w3.org/2000/svg">
<path d="M0.00133038 1.20954C0.00100708 1.04404 0.0586443 0.883661 0.164237 0.756231C0.223697 0.684511 0.296723 0.625226 0.37913 0.58177C0.461538 0.538315 0.551708 0.511545 0.644478 0.502991C0.737247 0.494438 0.830793 0.504271 0.919757 0.531926C1.00872 0.55958 1.09136 0.604514 1.16293 0.664153L4.95937 3.8373L8.76289 0.77748C8.83534 0.718645 8.9187 0.674709 9.00819 0.648196C9.09767 0.621684 9.19151 0.613118 9.28432 0.622991C9.37713 0.632864 9.46707 0.660981 9.54897 0.705726C9.63087 0.750472 9.70313 0.810963 9.76158 0.883724C9.82606 0.957008 9.87469 1.04283 9.90444 1.1358C9.93418 1.22877 9.94438 1.32689 9.9344 1.42399C9.92443 1.52109 9.89449 1.61508 9.84646 1.70007C9.79844 1.78505 9.73337 1.85919 9.65533 1.91783L5.40559 5.33887C5.27885 5.44305 5.11988 5.5 4.95582 5.5C4.79177 5.5 4.6328 5.44305 4.50606 5.33887L0.256315 1.79742C0.1706 1.72636 0.102841 1.6361 0.0585394 1.53396C0.0142365 1.43182 -0.00536346 1.32067 0.00133038 1.20954Z" fill="#BDB2FF"/>
</svg>
