<svg width="24" height="24" viewBox="0 0 24 24" fill="none" xmlns="http://www.w3.org/2000/svg">
<path fill-rule="evenodd" clip-rule="evenodd" d="M16.5799 22.5391C16.7743 22.5391 16.9608 22.4618 17.0984 22.3244C17.2358 22.187 17.3131 22.0003 17.3131 21.8061V15.7136H3.82031V21.8061C3.82031 22.0003 3.89763 22.187 4.0351 22.3244C4.17258 22.4618 4.35906 22.5391 4.5535 22.5391H16.5799Z" fill="url(#paint0_linear_684_13144)"/>
<path fill-rule="evenodd" clip-rule="evenodd" d="M17.9126 13.3828V17.3137C17.9126 17.5082 17.8353 17.6948 17.6979 17.8323C17.5604 17.9698 17.3739 18.0469 17.1794 18.0469H3.95195C3.75754 18.0469 3.57105 17.9698 3.43359 17.8323C3.29602 17.6948 3.21875 17.5082 3.21875 17.3137V13.3828H17.9126Z" fill="url(#paint1_linear_684_13144)"/>
<path fill-rule="evenodd" clip-rule="evenodd" d="M17.1794 15.6641C17.5843 15.6641 17.9126 15.3359 17.9126 14.931V11.83C17.9126 11.4251 17.5843 11.0969 17.1794 11.0969H3.95195C3.54703 11.0969 3.21875 11.4251 3.21875 11.83V14.931C3.21875 15.3359 3.54703 15.6641 3.95195 15.6641H17.1794Z" fill="url(#paint2_linear_684_13144)"/>
<path d="M14.8725 13.8828H6.26562V12.8837H14.8725V13.8828Z" fill="url(#paint3_linear_684_13144)"/>
<path fill-rule="evenodd" clip-rule="evenodd" d="M16.9208 2.86477C16.9208 2.86477 13.9978 3.42134 12.5647 3.69411C12.0662 3.78903 11.6194 4.06272 11.3083 4.46376C10.9389 4.93999 10.4445 5.57737 10.1508 5.95592C9.98526 6.16931 9.85053 6.40479 9.75024 6.65558C9.51883 7.23466 9.10305 8.27496 9.10305 8.27496C9.10305 8.27496 13.2262 8.75763 15.1021 8.97716C15.6793 9.04472 16.2571 8.85539 16.6824 8.45944C17.5433 7.65797 18.9274 6.36919 18.9274 6.36919L16.9208 2.86477Z" fill="url(#paint4_linear_684_13144)"/>
<path fill-rule="evenodd" clip-rule="evenodd" d="M16.6642 2.27352C16.4343 2.40624 16.3556 2.70019 16.4883 2.93007L18.5785 6.55035C18.7112 6.78023 19.0051 6.85898 19.2349 6.72625L20.5374 5.97427C20.7673 5.84155 20.846 5.54769 20.7133 5.31781L18.6231 1.69752C18.4904 1.46764 18.1965 1.38881 17.9666 1.52153L16.6642 2.27352Z" fill="url(#paint5_linear_684_13144)"/>
<path fill-rule="evenodd" clip-rule="evenodd" d="M15.875 10.3215C15.9162 10.4752 15.8946 10.6389 15.8151 10.7768C15.7355 10.9146 15.6043 11.0151 15.4506 11.0563C13.9967 11.4459 10.2077 12.4612 8.75401 12.8507C8.60029 12.8919 8.43643 12.8704 8.29861 12.7908C8.16077 12.7112 8.06028 12.5802 8.01908 12.4264C7.75252 11.4316 7.2109 9.41025 6.94435 8.41549C6.90316 8.26175 6.92467 8.09797 7.00424 7.96016C7.08382 7.82236 7.21498 7.72181 7.36869 7.68063C8.82234 7.29112 12.6114 6.27586 14.0653 5.88627C14.219 5.84508 14.3829 5.86658 14.5207 5.94613C14.6585 6.02569 14.759 6.15678 14.8002 6.31051C15.0668 7.30527 15.6084 9.32663 15.875 10.3215ZM13.9077 7.00754L8.06555 8.57294L8.91132 11.7294L14.7535 10.164L13.9077 7.00754Z" fill="url(#paint6_linear_684_13144)"/>
<path fill-rule="evenodd" clip-rule="evenodd" d="M14.3407 6.59983C14.3242 6.53837 14.2841 6.48592 14.2289 6.45408C14.1737 6.42224 14.1082 6.41361 14.0466 6.43012L7.66131 8.14106C7.6 8.15749 7.5476 8.19771 7.51572 8.25288C7.48384 8.30806 7.47534 8.37352 7.49181 8.43498L8.48314 12.1347C8.49961 12.1961 8.53969 12.2486 8.59489 12.2804C8.65006 12.3122 8.71556 12.3208 8.77686 12.3044L15.1622 10.5934C15.2238 10.5769 15.2762 10.5367 15.3081 10.4816C15.34 10.4264 15.3485 10.361 15.332 10.2995L14.3407 6.59983Z" fill="url(#paint7_linear_684_13144)"/>
<path fill-rule="evenodd" clip-rule="evenodd" d="M8.31249 8.41471C8.15727 8.4563 8.06514 8.61586 8.10673 8.77108L8.10674 8.7711C8.14833 8.92632 8.30789 9.01842 8.46311 8.97683C8.65186 8.92626 8.89956 8.85989 9.0883 8.80931C9.24357 8.76771 9.33566 8.60818 9.29407 8.45296L9.29406 8.45293C9.25247 8.29771 9.09295 8.20558 8.93768 8.24719C8.74893 8.29776 8.50124 8.36413 8.31249 8.41471Z" fill="url(#paint8_linear_684_13144)"/>
<path fill-rule="evenodd" clip-rule="evenodd" d="M14.3594 9.75717C14.5146 9.71558 14.6742 9.80769 14.7158 9.96291L14.7158 9.96294C14.7574 10.1182 14.6652 10.2777 14.51 10.3193C14.3213 10.3699 14.0736 10.4362 13.8848 10.4868C13.7295 10.5284 13.57 10.4363 13.5284 10.2811L13.5284 10.2811C13.4868 10.1258 13.5789 9.96629 13.7342 9.92469C13.9229 9.87411 14.1706 9.80774 14.3594 9.75717Z" fill="url(#paint9_linear_684_13144)"/>
<path d="M11.7772 10.7512C12.5399 10.5468 12.9926 9.76291 12.7882 9.00025C12.5838 8.23758 11.7999 7.78499 11.0372 7.98935C10.2745 8.19371 9.82191 8.97764 10.0263 9.7403C10.2306 10.503 11.0146 10.9556 11.7772 10.7512Z" fill="url(#paint10_linear_684_13144)"/>
<path fill-rule="evenodd" clip-rule="evenodd" d="M15.3107 6.24542C15.3107 6.24542 14.8598 6.74111 14.6099 7.01592C14.503 7.1335 14.3734 7.2285 14.2291 7.29516C13.8695 7.46146 13.1426 7.79741 12.6312 8.03379C12.3043 8.18493 12.1324 8.54809 12.2226 8.89667C12.2337 8.9393 12.2448 8.98228 12.256 9.02525C12.353 9.39914 12.7196 9.63686 13.1005 9.57272C13.7432 9.46443 14.7062 9.30234 15.3474 9.19433C15.781 9.12135 16.1779 8.90623 16.4757 8.58281C16.7331 8.30348 17.0027 8.01071 17.0027 8.01071" fill="url(#paint11_linear_684_13144)"/>
<defs>
<linearGradient id="paint0_linear_684_13144" x1="10.5667" y1="22.5391" x2="10.5667" y2="18.0454" gradientUnits="userSpaceOnUse">
<stop stop-color="#D1D2D3"/>
<stop offset="1" stop-color="#F4F6F2"/>
</linearGradient>
<linearGradient id="paint1_linear_684_13144" x1="10.5657" y1="18.0469" x2="10.5657" y2="13.3827" gradientUnits="userSpaceOnUse">
<stop stop-color="#FF9C44"/>
<stop offset="1" stop-color="#FFF95B"/>
</linearGradient>
<linearGradient id="paint2_linear_684_13144" x1="10.5657" y1="11.0969" x2="10.5657" y2="15.6642" gradientUnits="userSpaceOnUse">
<stop stop-color="#FF9C44"/>
<stop offset="1" stop-color="#FFF95B"/>
</linearGradient>
<linearGradient id="paint3_linear_684_13144" x1="10.5691" y1="12.8837" x2="10.5691" y2="13.8828" gradientUnits="userSpaceOnUse">
<stop stop-color="#FF9C44"/>
<stop offset="1" stop-color="#CF7700"/>
</linearGradient>
<linearGradient id="paint4_linear_684_13144" x1="13.8261" y1="3.56886" x2="15.9784" y2="8.94956" gradientUnits="userSpaceOnUse">
<stop stop-color="#FFDEBB"/>
<stop offset="1" stop-color="#FFA785"/>
</linearGradient>
<linearGradient id="paint5_linear_684_13144" x1="19.8862" y1="6.35026" x2="17.3154" y2="1.89754" gradientUnits="userSpaceOnUse">
<stop stop-color="#FF9C44"/>
<stop offset="1" stop-color="#FFF95B"/>
</linearGradient>
<linearGradient id="paint6_linear_684_13144" x1="10.717" y1="6.78345" x2="12.7728" y2="14.3949" gradientUnits="userSpaceOnUse">
<stop stop-color="#5CB270"/>
<stop offset="1" stop-color="#205861"/>
</linearGradient>
<linearGradient id="paint7_linear_684_13144" x1="10.8541" y1="7.28555" x2="11.9697" y2="11.4488" gradientUnits="userSpaceOnUse">
<stop stop-color="#F4F269"/>
<stop offset="1" stop-color="#5CB270"/>
</linearGradient>
<linearGradient id="paint8_linear_684_13144" x1="8.62509" y1="8.33095" x2="8.84576" y2="9.15927" gradientUnits="userSpaceOnUse">
<stop stop-color="#5CB270"/>
<stop offset="1" stop-color="#205861"/>
</linearGradient>
<linearGradient id="paint9_linear_684_13144" x1="14.0468" y1="9.84093" x2="14.2698" y2="10.6686" gradientUnits="userSpaceOnUse">
<stop stop-color="#5CB270"/>
<stop offset="1" stop-color="#205861"/>
</linearGradient>
<linearGradient id="paint10_linear_684_13144" x1="11.0372" y1="7.98937" x2="12.1453" y2="12.0527" gradientUnits="userSpaceOnUse">
<stop stop-color="#5CB270"/>
<stop offset="1" stop-color="#205861"/>
</linearGradient>
<linearGradient id="paint11_linear_684_13144" x1="13.8333" y1="3.57" x2="15.9855" y2="8.9507" gradientUnits="userSpaceOnUse">
<stop stop-color="#FFDEBB"/>
<stop offset="1" stop-color="#FFA785"/>
</linearGradient>
</defs>
</svg>
