<svg width="28" height="28" viewBox="0 0 28 28" fill="none" xmlns="http://www.w3.org/2000/svg">
<path d="M25.5418 9.88954L10.5414 24.89C10.1962 25.2277 9.76306 25.4616 9.29133 25.565L4.86621 26.4525C4.46335 26.5322 4.04706 26.5114 3.65414 26.3919C3.26122 26.2725 2.90377 26.0581 2.61339 25.7677C2.323 25.4774 2.10862 25.1199 1.98919 24.727C1.86976 24.3341 1.84896 23.9178 1.92863 23.5149L2.80365 19.1273C2.907 18.6556 3.14091 18.2224 3.47867 17.8773L18.2791 3.06435C18.7623 2.5692 19.3397 2.17572 19.9773 1.90706C20.6149 1.6384 21.2998 1.5 21.9917 1.5C22.6836 1.5 23.3685 1.6384 24.0061 1.90706C24.6436 2.17572 25.221 2.5692 25.7043 3.06435C26.5655 4.0143 27.0289 5.25879 26.9986 6.54065C26.9684 7.82251 26.4468 9.04377 25.5418 9.95205V9.88954Z" stroke="#BDB2FF" stroke-width="2" stroke-linecap="round" stroke-linejoin="round"/>
</svg>
