<svg width="7" height="6" viewBox="0 0 7 6" fill="none" xmlns="http://www.w3.org/2000/svg">
<path d="M6.38052 0.815289C6.38042 0.649664 6.31458 0.490851 6.19747 0.373736C6.08035 0.256621 5.92154 0.190781 5.75591 0.190678L2.4222 0.189794C2.25639 0.189794 2.09736 0.255663 1.98012 0.372911C1.86287 0.490159 1.797 0.649181 1.797 0.814995C1.797 0.980808 1.86287 1.13983 1.98012 1.25708C2.09736 1.37433 2.25639 1.44019 2.4222 1.44019L4.24683 1.44049L0.848298 4.83902C0.731088 4.95623 0.66524 5.1152 0.66524 5.28096C0.66524 5.44672 0.731088 5.60569 0.848298 5.72291C0.965508 5.84012 1.12448 5.90596 1.29024 5.90596C1.456 5.90596 1.61497 5.84012 1.73218 5.72291L5.13071 2.32437L5.13071 4.14871C5.13071 4.23081 5.14688 4.31211 5.1783 4.38796C5.20972 4.46381 5.25577 4.53274 5.31383 4.59079C5.37189 4.64885 5.44081 4.6949 5.51666 4.72632C5.59251 4.75774 5.67381 4.77391 5.75591 4.77391C5.83802 4.77391 5.91931 4.75774 5.99517 4.72632C6.07102 4.6949 6.13994 4.64885 6.198 4.59079C6.25605 4.53274 6.3021 4.46381 6.33352 4.38796C6.36494 4.31211 6.38111 4.23081 6.38111 4.14871L6.38052 0.815289Z" fill="#E00B0B"/>
</svg>
