<svg width="18" height="18" viewBox="0 0 18 18" fill="none" xmlns="http://www.w3.org/2000/svg">
<path d="M0.688281 7.29373C0.609531 7.18721 0.552727 7.06612 0.521167 6.93747C0.489608 6.80882 0.483922 6.67519 0.50444 6.54432C0.524958 6.41346 0.571271 6.28797 0.640689 6.17516C0.710107 6.06234 0.801247 5.96444 0.908817 5.88714C1.01639 5.80985 1.13824 5.75469 1.26731 5.72487C1.39637 5.69506 1.53007 5.69119 1.66064 5.71348C1.79122 5.73577 1.91606 5.78378 2.02793 5.85472C2.13979 5.92566 2.23645 6.01812 2.31228 6.12673C2.61628 6.54973 3.08528 6.95373 3.69228 7.30373C4.98528 8.04973 6.77728 8.48773 8.70428 8.48773C10.6323 8.48773 12.4243 8.05073 13.7173 7.30373C14.3243 6.95373 14.7933 6.54973 15.0973 6.12673C15.1731 6.01812 15.2698 5.92566 15.3816 5.85472C15.4935 5.78378 15.6183 5.73577 15.7489 5.71348C15.8795 5.69119 16.0132 5.69506 16.1423 5.72487C16.2713 5.75469 16.3932 5.80985 16.5007 5.88714C16.6083 5.96444 16.6995 6.06234 16.7689 6.17516C16.8383 6.28797 16.8846 6.41346 16.9051 6.54432C16.9256 6.67519 16.92 6.80882 16.8884 6.93747C16.8568 7.06612 16.8 7.18721 16.7213 7.29373C16.2413 7.96273 15.5573 8.55073 14.7173 9.03573C13.1053 9.96573 10.9693 10.4877 8.70428 10.4877C6.44028 10.4877 4.30428 9.96573 2.69228 9.03573C1.85228 8.55073 1.16828 7.96273 0.688281 7.29373Z" fill="#A7AEBF"/>
<path d="M10.0003 9.98787C10.0003 9.72266 9.89491 9.4683 9.70737 9.28077C9.51984 9.09323 9.26548 8.98787 9.00027 8.98787C8.73505 8.98787 8.4807 9.09323 8.29316 9.28077C8.10562 9.4683 8.00027 9.72266 8.00027 9.98787V12.4879C8.00027 12.7531 8.10562 13.0074 8.29316 13.195C8.4807 13.3825 8.73505 13.4879 9.00027 13.4879C9.26548 13.4879 9.51984 13.3825 9.70737 13.195C9.89491 13.0074 10.0003 12.7531 10.0003 12.4879V9.98787ZM4.53027 9.74587C4.59822 9.49258 4.76296 9.27612 4.98898 9.14313C5.215 9.01014 5.48423 8.97125 5.73864 9.03486C5.99306 9.09846 6.21231 9.25946 6.34916 9.48318C6.48601 9.70689 6.5295 9.9754 6.47027 10.2309L5.97027 12.2309C5.93912 12.3591 5.88292 12.4798 5.8049 12.5862C5.72688 12.6926 5.62858 12.7825 5.51567 12.8507C5.40276 12.9189 5.27746 12.9641 5.147 12.9837C5.01654 13.0033 4.88349 12.9969 4.75552 12.9648C4.62756 12.9328 4.50719 12.8757 4.40138 12.7969C4.29556 12.7182 4.20637 12.6192 4.13896 12.5058C4.07154 12.3924 4.02723 12.2668 4.00858 12.1362C3.98992 12.0056 3.99729 11.8726 4.03027 11.7449L4.53027 9.74587ZM12.9703 9.74587C12.9023 9.49258 12.7376 9.27612 12.5116 9.14313C12.2855 9.01014 12.0163 8.97125 11.7619 9.03486C11.5075 9.09846 11.2882 9.25946 11.1514 9.48318C11.0145 9.70689 10.971 9.9754 11.0303 10.2309L11.5303 12.2309C11.5614 12.3591 11.6176 12.4798 11.6956 12.5862C11.7737 12.6926 11.8719 12.7825 11.9849 12.8507C12.0978 12.9189 12.2231 12.9641 12.3535 12.9837C12.484 13.0033 12.617 12.9969 12.745 12.9648C12.873 12.9328 12.9933 12.8757 13.0992 12.7969C13.205 12.7182 13.2942 12.6192 13.3616 12.5058C13.429 12.3924 13.4733 12.2668 13.492 12.1362C13.5106 12.0056 13.5032 11.8726 13.4703 11.7449L12.9703 9.74587ZM15.5253 7.28087C15.433 7.18536 15.3227 7.10918 15.2007 7.05677C15.0787 7.00436 14.9474 6.97678 14.8147 6.97562C14.6819 6.97447 14.5502 6.99977 14.4273 7.05005C14.3044 7.10033 14.1928 7.17459 14.0989 7.26848C14.005 7.36237 13.9307 7.47402 13.8804 7.59692C13.8302 7.71982 13.8049 7.8515 13.806 7.98427C13.8072 8.11705 13.8348 8.24827 13.8872 8.37028C13.9396 8.49228 14.0158 8.60263 14.1113 8.69487L16.1113 10.6949C16.2999 10.877 16.5525 10.9778 16.8147 10.9755C17.0769 10.9733 17.3277 10.8681 17.5131 10.6827C17.6985 10.4973 17.8037 10.2465 17.8059 9.98427C17.8082 9.72208 17.7074 9.46948 17.5253 9.28087L15.5253 7.28087ZM2.07827 7.31487C2.16665 7.2177 2.2733 7.13888 2.39214 7.08292C2.51098 7.02696 2.63968 6.99495 2.77089 6.98873C2.9021 6.98251 3.03325 7.00219 3.15685 7.04666C3.28045 7.09112 3.39409 7.15949 3.49127 7.24787C3.58844 7.33625 3.66726 7.44291 3.72322 7.56175C3.77918 7.68059 3.81119 7.80929 3.81741 7.9405C3.82363 8.07171 3.80395 8.20286 3.75948 8.32646C3.71502 8.45006 3.64665 8.5637 3.55827 8.66087L1.74027 10.6609C1.56177 10.8571 1.31263 10.9745 1.04764 10.987C0.782653 10.9996 0.523526 10.9064 0.327266 10.7279C0.131005 10.5494 0.0136886 10.3002 0.0011237 10.0352C-0.0114412 9.77026 0.0817749 9.51113 0.260266 9.31487L2.07827 7.31487Z" fill="#A7AEBF"/>
<path d="M0.293285 1.69471C0.111127 1.50611 0.0103326 1.25351 0.012611 0.99131C0.0148895 0.729114 0.120058 0.478301 0.305466 0.292893C0.490875 0.107485 0.741687 0.00231622 1.00388 3.78026e-05C1.26608 -0.00224062 1.51868 0.0985537 1.70729 0.280712L17.7073 16.2807C17.8894 16.4693 17.9902 16.7219 17.988 16.9841C17.9857 17.2463 17.8805 17.4971 17.6951 17.6825C17.5097 17.8679 17.2589 17.9731 16.9967 17.9754C16.7345 17.9777 16.4819 17.8769 16.2933 17.6947L0.293285 1.69471Z" fill="#A7AEBF"/>
</svg>
