<svg width="33" height="22" viewBox="0 0 33 22" fill="none" xmlns="http://www.w3.org/2000/svg">
<path d="M32.62 10.5298C29.25 4.29979 23.34 0.529785 16.8 0.529785C10.26 0.529785 4.33997 4.29979 0.999971 10.5298L0.719971 10.9998L0.979971 11.4798C4.34997 17.7098 10.26 21.4798 16.8 21.4798C23.34 21.4798 29.26 17.7598 32.62 11.4798L32.88 10.9998L32.62 10.5298ZM16.8 19.4298C11.17 19.4298 5.99997 16.2898 2.99997 10.9998C5.99997 5.70978 11.17 2.56978 16.8 2.56978C22.43 2.56978 27.54 5.71978 30.59 10.9998C27.54 16.2898 22.42 19.4298 16.8 19.4298Z" fill="black"/>
<path d="M17.09 4.1701C15.7341 4.18 14.4115 4.59148 13.2894 5.35259C12.1672 6.11369 11.2958 7.19027 10.7851 8.44635C10.2745 9.70243 10.1475 11.0817 10.4203 12.4099C10.693 13.7381 11.3533 14.9557 12.3176 15.9088C13.2819 16.862 14.5071 17.508 15.8384 17.7653C17.1697 18.0226 18.5474 17.8796 19.7974 17.3543C21.0475 16.8291 22.1138 15.9451 22.8618 14.8142C23.6098 13.6833 24.0059 12.356 24 11.0001C23.996 10.0975 23.814 9.20462 23.4644 8.37252C23.1148 7.54042 22.6044 6.7855 21.9625 6.15101C21.3205 5.51652 20.5597 5.01494 19.7236 4.67502C18.8875 4.3351 17.9925 4.16352 17.09 4.1701ZM17.09 15.8901C16.1322 15.8802 15.1987 15.5876 14.4068 15.0489C13.6148 14.5103 12.9997 13.7496 12.6386 12.8624C12.2775 11.9753 12.1867 11.0013 12.3774 10.0627C12.5681 9.12404 13.0319 8.2627 13.7105 7.58682C14.3892 6.91094 15.2524 6.45065 16.1918 6.26377C17.1312 6.07689 18.1048 6.17175 18.9905 6.53643C19.8762 6.90111 20.6343 7.51935 21.1697 8.31351C21.7052 9.10767 21.994 10.0423 22 11.0001C22.0026 11.6447 21.8773 12.2834 21.6313 12.8792C21.3852 13.475 21.0233 14.016 20.5666 14.4709C20.1098 14.9258 19.5674 15.2854 18.9706 15.5291C18.3738 15.7727 17.7345 15.8954 17.09 15.8901Z" fill="black"/>
</svg>
