<svg width="81" height="80" viewBox="0 0 81 80" fill="none" xmlns="http://www.w3.org/2000/svg">
<path d="M59.328 1.172C58.9572 0.799834 58.5164 0.504683 58.0311 0.303542C57.5457 0.102401 57.0254 -0.000757796 56.5 4.19069e-06H24.5C23.9746 -0.000757796 23.4543 0.102401 22.9689 0.303542C22.4836 0.504683 22.0428 0.799834 21.672 1.172L1.672 21.172C1.29983 21.5428 1.00468 21.9836 0.803542 22.4689C0.602401 22.9543 0.499242 23.4746 0.500004 24V56C0.500004 57.064 0.920004 58.08 1.672 58.828L21.672 78.828C22.0428 79.2002 22.4836 79.4953 22.9689 79.6965C23.4543 79.8976 23.9746 80.0008 24.5 80H56.5C57.564 80 58.58 79.58 59.328 78.828L79.328 58.828C79.7002 58.4572 79.9953 58.0164 80.1965 57.5311C80.3976 57.0457 80.5008 56.5254 80.5 56V24C80.5008 23.4746 80.3976 22.9543 80.1965 22.4689C79.9953 21.9836 79.7002 21.5428 79.328 21.172L59.328 1.172ZM44.5 60H36.5V52H44.5V60ZM44.5 44H36.5V20H44.5V44Z" fill="#E00B0B"/>
</svg>
