<svg width="22" height="23" viewBox="0 0 22 23" fill="none" xmlns="http://www.w3.org/2000/svg">
<path d="M11.7797 0.822068L21.6799 10.7222C22.3729 11.4152 21.8823 12.5999 20.9021 12.5999H19.8021V19.2C19.8021 20.0752 19.4545 20.9146 18.8356 21.5334C18.2167 22.1523 17.3773 22.5 16.5021 22.5H15.4021V14.7999C15.4021 13.9582 15.0805 13.1482 14.5031 12.5358C13.9256 11.9234 13.1359 11.5548 12.2957 11.5054L12.1021 11.4999H9.90203C9.02681 11.4999 8.18743 11.8476 7.56855 12.4664C6.94967 13.0853 6.60199 13.9247 6.60199 14.7999V22.5H5.50198C4.62676 22.5 3.78738 22.1523 3.1685 21.5334C2.54963 20.9146 2.20195 20.0752 2.20195 19.2V12.5999H1.10193C0.122924 12.5999 -0.368781 11.4152 0.324226 10.7222L10.2243 0.822068C10.4306 0.615848 10.7104 0.5 11.002 0.5C11.2937 0.5 11.5735 0.615848 11.7797 0.822068ZM12.1021 13.6999C12.3938 13.6999 12.6736 13.8158 12.8799 14.0221C13.0862 14.2284 13.2021 14.5082 13.2021 14.7999V22.5H8.80202V14.7999C8.80205 14.5305 8.90097 14.2704 9.08001 14.0691C9.25904 13.8678 9.50575 13.7391 9.77333 13.7076L9.90203 13.6999H12.1021Z" fill="#BDB2FF"/>
</svg>
