<svg width="7" height="6" viewBox="0 0 7 6" fill="none" xmlns="http://www.w3.org/2000/svg">
<path d="M0.619475 5.3268C0.619578 5.49243 0.685418 5.65124 0.802533 5.76835C0.919648 5.88547 1.07846 5.95131 1.24409 5.95141L4.5778 5.9523C4.74361 5.9523 4.90264 5.88643 5.01988 5.76918C5.13713 5.65193 5.203 5.49291 5.203 5.3271C5.203 5.16128 5.13713 5.00226 5.01988 4.88501C4.90264 4.76776 4.74361 4.70189 4.5778 4.70189L2.75317 4.7016L6.1517 1.30307C6.26891 1.18586 6.33476 1.02689 6.33476 0.861127C6.33476 0.695367 6.26891 0.536395 6.1517 0.419185C6.03449 0.301975 5.87552 0.236127 5.70976 0.236127C5.544 0.236127 5.38503 0.301975 5.26782 0.419185L1.86929 3.81772L1.86929 1.99338C1.86929 1.91128 1.85311 1.82998 1.8217 1.75413C1.79028 1.67828 1.74422 1.60935 1.68617 1.5513C1.62811 1.49324 1.55919 1.44719 1.48334 1.41577C1.40749 1.38435 1.32619 1.36818 1.24409 1.36818C1.16198 1.36818 1.08069 1.38435 1.00483 1.41577C0.92898 1.44719 0.860058 1.49324 0.802003 1.5513C0.743948 1.60935 0.697896 1.67828 0.666477 1.75413C0.635057 1.82998 0.618886 1.91128 0.618886 1.99338L0.619475 5.3268Z" fill="#42E00B"/>
</svg>
