<svg width="71" height="88" viewBox="0 0 71 88" fill="none" xmlns="http://www.w3.org/2000/svg">
<path d="M8.89223 42.0247C8.60834 48.1322 8.93501 54.6334 4.08557 58.724C2.97064 59.6626 2.06591 60.8811 1.44342 62.2825C0.820937 63.6838 0.497891 65.2293 0.50001 66.7959C0.50001 71.1578 3.54112 74.8766 7.50001 74.8766H63.5C67.4589 74.8766 70.5 71.1578 70.5 66.7959C70.5 63.6197 69.17 60.6272 66.9144 58.724C62.065 54.6334 62.3917 48.1322 62.1078 42.0247C61.7578 34.3513 58.8018 27.1221 53.8503 21.8301C48.8987 16.5381 42.3298 13.5874 35.5 13.5874C28.6702 13.5874 22.1013 16.5381 17.1497 21.8301C12.1982 27.1221 9.24219 34.3513 8.89223 42.0247Z" fill="#BDB2FF"/>
<path d="M29.667 5.42188C29.667 9.04438 32.2803 13.625 35.5003 13.625C38.7203 13.625 41.3336 9.04438 41.3336 5.42188C41.3336 1.79937 38.7203 0.5 35.5003 0.5C32.2803 0.5 29.667 1.79937 29.667 5.42188ZM47.1669 74.875C47.1669 78.356 45.9378 81.6944 43.7499 84.1558C41.5619 86.6172 38.5945 88 35.5003 88C32.4061 88 29.4386 86.6172 27.2507 84.1558C25.0628 81.6944 23.8336 78.356 23.8336 74.875" fill="#BDB2FF"/>
</svg>
