<svg width="22" height="28" viewBox="0 0 22 28" fill="none" xmlns="http://www.w3.org/2000/svg">
<path d="M3.39778 13.3642C3.31667 15.1092 3.41 16.9667 2.02445 18.1354C1.7059 18.4036 1.4474 18.7518 1.26955 19.1521C1.0917 19.5525 0.999398 19.9941 1 20.4417C1 21.6879 1.86889 22.7504 3 22.7504H19C20.1311 22.7504 21 21.6879 21 20.4417C21 19.5342 20.62 18.6792 19.9756 18.1354C18.59 16.9667 18.6833 15.1092 18.6022 13.3642C18.5022 11.1718 17.6577 9.10632 16.2429 7.59432C14.8282 6.08231 12.9514 5.23926 11 5.23926C9.04864 5.23926 7.1718 6.08231 5.75707 7.59432C4.34234 9.10632 3.49777 11.1718 3.39778 13.3642Z" stroke="#BDB2FF" stroke-width="1.5" stroke-linecap="round" stroke-linejoin="round"/>
<path d="M14.3334 22.75C14.3334 23.7446 13.9822 24.6984 13.357 25.4017C12.7319 26.1049 11.8841 26.5 11 26.5C10.116 26.5 9.26812 26.1049 8.643 25.4017C8.01788 24.6984 7.66669 23.7446 7.66669 22.75M9.33335 2.90625C9.33335 3.94125 10.08 5.25 11 5.25C11.92 5.25 12.6667 3.94125 12.6667 2.90625C12.6667 1.87125 11.92 1.5 11 1.5C10.08 1.5 9.33335 1.87125 9.33335 2.90625Z" stroke="#BDB2FF" stroke-width="1.5" stroke-linecap="round" stroke-linejoin="round"/>
</svg>
