<svg width="15" height="20" viewBox="0 0 15 20" fill="none" xmlns="http://www.w3.org/2000/svg">
<path d="M14.3737 9.80175L5.62367 19.1768C5.53094 19.2757 5.40855 19.3418 5.27495 19.3651C5.14136 19.3884 5.00381 19.3676 4.88307 19.3059C4.76232 19.2441 4.66494 19.1448 4.6056 19.0229C4.54627 18.9009 4.52821 18.763 4.55414 18.6299L5.69945 12.901L1.19711 11.2103C1.10041 11.1742 1.01419 11.1146 0.946126 11.037C0.878067 10.9594 0.830296 10.8661 0.807082 10.7655C0.783868 10.6649 0.785934 10.5601 0.813095 10.4605C0.840256 10.3609 0.891667 10.2696 0.962733 10.1947L9.71273 0.819721C9.80546 0.720764 9.92785 0.654652 10.0615 0.631359C10.195 0.608067 10.3326 0.628858 10.4533 0.690597C10.5741 0.752335 10.6715 0.851671 10.7308 0.973613C10.7901 1.09555 10.8082 1.23349 10.7823 1.3666L9.63383 7.10175L14.1362 8.79003C14.2322 8.82645 14.3177 8.88594 14.3852 8.96326C14.4527 9.04057 14.5002 9.13334 14.5234 9.23334C14.5465 9.33335 14.5447 9.43753 14.5181 9.53666C14.4914 9.6358 14.4407 9.72684 14.3705 9.80175H14.3737Z" fill="#EC6605"/>
</svg>
