<svg width="24" height="26" viewBox="0 0 24 26" fill="none" xmlns="http://www.w3.org/2000/svg">
<path d="M16.7132 1.68604H9.17035C7.50374 1.68668 5.90562 2.34919 4.72738 3.52789C3.54914 4.70659 2.88725 6.30497 2.88725 7.97157V18.0279C2.88725 21.4991 5.70039 24.3135 9.17157 24.3135H16.7145C20.1856 24.3135 23 21.5003 23 18.0279V7.9728C23 4.50162 20.1869 1.68726 16.7145 1.68726M1 8.60025H4.77084M1 17.3993H4.77084" stroke="#BDB2FF" stroke-width="2" stroke-linecap="round" stroke-linejoin="round"/>
<path d="M17.7113 18.8033C17.7113 16.7815 15.4571 15.1388 13.4366 15.1388C11.4148 15.1388 9.1618 16.7815 9.1618 18.802M13.4366 12.2266C13.8137 12.2266 14.1871 12.1523 14.5356 12.008C14.884 11.8637 15.2006 11.6521 15.4673 11.3855C15.7339 11.1188 15.9455 10.8022 16.0898 10.4538C16.2341 10.1053 16.3084 9.7319 16.3084 9.35476C16.3084 8.97763 16.2341 8.60418 16.0898 8.25575C15.9455 7.90732 15.7339 7.59073 15.4673 7.32406C15.2006 7.05738 14.884 6.84584 14.5356 6.70152C14.1871 6.55719 13.8137 6.48291 13.4366 6.48291C12.6749 6.48291 11.9444 6.78548 11.4059 7.32406C10.8673 7.86263 10.5647 8.5931 10.5647 9.35476C10.5647 10.1164 10.8673 10.8469 11.4059 11.3855C11.9444 11.924 12.6749 12.2266 13.4366 12.2266Z" stroke="#BDB2FF" stroke-width="2" stroke-linecap="round" stroke-linejoin="round"/>
</svg>
