<svg width="22" height="23" viewBox="0 0 22 23" fill="none" xmlns="http://www.w3.org/2000/svg">
<path fill-rule="evenodd" clip-rule="evenodd" d="M6.11111 5.38889C6.11111 4.09227 6.62619 2.84877 7.54303 1.93192C8.45988 1.01508 9.70339 0.5 11 0.5C12.2966 0.5 13.5401 1.01508 14.457 1.93192C15.3738 2.84877 15.8889 4.09227 15.8889 5.38889C15.8889 6.6855 15.3738 7.92901 14.457 8.84586C13.5401 9.7627 12.2966 10.2778 11 10.2778C9.70339 10.2778 8.45988 9.7627 7.54303 8.84586C6.62619 7.92901 6.11111 6.6855 6.11111 5.38889ZM6.11111 12.7222C4.49034 12.7222 2.93596 13.3661 1.7899 14.5121C0.643847 15.6582 0 17.2126 0 18.8333C0 19.8058 0.386309 20.7384 1.07394 21.4261C1.76158 22.1137 2.69421 22.5 3.66667 22.5H18.3333C19.3058 22.5 20.2384 22.1137 20.9261 21.4261C21.6137 20.7384 22 19.8058 22 18.8333C22 17.2126 21.3562 15.6582 20.2101 14.5121C19.064 13.3661 17.5097 12.7222 15.8889 12.7222H6.11111Z" fill="#A7AEBF"/>
</svg>
