<svg width="25" height="29" viewBox="0 0 25 29" fill="none" xmlns="http://www.w3.org/2000/svg">
<path d="M19.5 12.9756H5.5C4.17392 12.9756 2.90215 13.5024 1.96447 14.4401C1.02678 15.3777 0.5 16.6495 0.5 17.9756V23.9756C0.5 25.3017 1.02678 26.5734 1.96447 27.5111C2.90215 28.4488 4.17392 28.9756 5.5 28.9756H19.5C20.8261 28.9756 22.0979 28.4488 23.0355 27.5111C23.9732 26.5734 24.5 25.3017 24.5 23.9756V17.9756C24.5 16.6495 23.9732 15.3777 23.0355 14.4401C22.0979 13.5024 20.8261 12.9756 19.5 12.9756ZM12.5 24.9756C11.7089 24.9756 10.9355 24.741 10.2777 24.3015C9.61992 23.8619 9.10723 23.2372 8.80448 22.5063C8.50173 21.7754 8.42252 20.9711 8.57686 20.1952C8.7312 19.4193 9.11216 18.7066 9.67157 18.1472C10.231 17.5877 10.9437 17.2068 11.7196 17.0524C12.4956 16.8981 13.2998 16.9773 14.0307 17.2801C14.7616 17.5828 15.3864 18.0955 15.8259 18.7533C16.2654 19.4111 16.5 20.1845 16.5 20.9756C16.5 22.0365 16.0786 23.0539 15.3284 23.804C14.5783 24.5542 13.5609 24.9756 12.5 24.9756Z" fill="#BDB2FF"/>
<path d="M12.5 22.9756C13.6046 22.9756 14.5 22.0802 14.5 20.9756C14.5 19.871 13.6046 18.9756 12.5 18.9756C11.3954 18.9756 10.5 19.871 10.5 20.9756C10.5 22.0802 11.3954 22.9756 12.5 22.9756Z" fill="#BDB2FF"/>
<path d="M12.5 0.975586C12.2348 0.975586 11.9805 1.08094 11.7929 1.26848C11.6054 1.45602 11.5 1.71037 11.5 1.97559V7.56559L8.96003 5.02559C8.76873 4.86176 8.52265 4.77615 8.27097 4.78587C8.0193 4.7956 7.78056 4.89993 7.60246 5.07802C7.42437 5.25612 7.32004 5.49486 7.31032 5.74653C7.30059 5.99821 7.3862 6.24428 7.55003 6.43559L11.79 10.6856C11.8822 10.7755 11.9908 10.8468 12.11 10.8956C12.2334 10.9478 12.366 10.9748 12.5 10.9748C12.634 10.9748 12.7666 10.9478 12.89 10.8956C13.0092 10.8468 13.1179 10.7755 13.21 10.6856L17.5 6.43559C17.6639 6.24428 17.7495 5.99821 17.7397 5.74653C17.73 5.49486 17.6257 5.25612 17.4476 5.07802C17.2695 4.89993 17.0308 4.7956 16.7791 4.78587C16.5274 4.77615 16.2813 4.86176 16.09 5.02559L13.5 7.56559V1.97559C13.5 1.71037 13.3947 1.45602 13.2071 1.26848C13.0196 1.08094 12.7652 0.975586 12.5 0.975586Z" fill="#BDB2FF"/>
</svg>
