<svg width="25" height="29" viewBox="0 0 25 29" fill="none" xmlns="http://www.w3.org/2000/svg">
<path d="M19.5 12.9756H5.5C4.17392 12.9756 2.90215 13.5024 1.96447 14.4401C1.02678 15.3777 0.5 16.6495 0.5 17.9756V23.9756C0.5 25.3017 1.02678 26.5734 1.96447 27.5111C2.90215 28.4488 4.17392 28.9756 5.5 28.9756H19.5C20.8261 28.9756 22.0979 28.4488 23.0355 27.5111C23.9732 26.5734 24.5 25.3017 24.5 23.9756V17.9756C24.5 16.6495 23.9732 15.3777 23.0355 14.4401C22.0979 13.5024 20.8261 12.9756 19.5 12.9756ZM12.5 24.9756C11.7089 24.9756 10.9355 24.741 10.2777 24.3015C9.61992 23.8619 9.10723 23.2372 8.80448 22.5063C8.50173 21.7754 8.42252 20.9711 8.57686 20.1952C8.7312 19.4193 9.11216 18.7066 9.67157 18.1472C10.231 17.5877 10.9437 17.2068 11.7196 17.0524C12.4956 16.8981 13.2998 16.9773 14.0307 17.2801C14.7616 17.5828 15.3864 18.0955 15.8259 18.7533C16.2654 19.4111 16.5 20.1845 16.5 20.9756C16.5 22.0365 16.0786 23.0539 15.3284 23.804C14.5783 24.5542 13.5609 24.9756 12.5 24.9756Z" fill="#BDB2FF"/>
<path d="M12.5 22.9756C13.6046 22.9756 14.5 22.0802 14.5 20.9756C14.5 19.871 13.6046 18.9756 12.5 18.9756C11.3954 18.9756 10.5 19.871 10.5 20.9756C10.5 22.0802 11.3954 22.9756 12.5 22.9756Z" fill="#BDB2FF"/>
<path d="M13.21 1.26552C13.1171 1.1718 13.0065 1.0974 12.8846 1.04663C12.7627 0.995865 12.632 0.969727 12.5 0.969727C12.368 0.969727 12.2373 0.995865 12.1154 1.04663C11.9936 1.0974 11.883 1.1718 11.79 1.26552L7.55003 5.51552C7.35642 5.7025 7.24502 5.95873 7.24033 6.22785C7.23564 6.49696 7.33805 6.75692 7.52503 6.95052C7.712 7.14413 7.96823 7.25554 8.23735 7.26022C8.50646 7.26491 8.76642 7.1625 8.96003 6.97552L11.5 4.38552V9.97552C11.5 10.2407 11.6054 10.4951 11.7929 10.6826C11.9805 10.8702 12.2348 10.9755 12.5 10.9755C12.7652 10.9755 13.0196 10.8702 13.2071 10.6826C13.3947 10.4951 13.5 10.2407 13.5 9.97552V4.38552L16.04 6.97552C16.2263 7.16027 16.4777 7.26442 16.74 7.26552C16.88 7.27314 17.0199 7.25125 17.1508 7.20129C17.2818 7.15134 17.4007 7.07442 17.5 6.97552C17.6863 6.78816 17.7908 6.53471 17.7908 6.27052C17.7908 6.00634 17.6863 5.75289 17.5 5.56553L13.21 1.26552Z" fill="#BDB2FF"/>
</svg>
