<svg width="24" height="24" viewBox="0 0 24 24" fill="none" xmlns="http://www.w3.org/2000/svg">
<path fill-rule="evenodd" clip-rule="evenodd" d="M18.47 13.4698C18.6107 13.3294 18.8013 13.2505 19 13.2505C19.1988 13.2505 19.3894 13.3294 19.53 13.4698L21.53 15.4698C21.6037 15.5385 21.6628 15.6213 21.7038 15.7133C21.7448 15.8053 21.7668 15.9046 21.7686 16.0053C21.7704 16.106 21.7519 16.206 21.7142 16.2994C21.6764 16.3928 21.6203 16.4776 21.5491 16.5489C21.4779 16.6201 21.393 16.6762 21.2996 16.714C21.2062 16.7517 21.1062 16.7702 21.0055 16.7684C20.9048 16.7666 20.8055 16.7446 20.7135 16.7036C20.6215 16.6626 20.5387 16.6035 20.47 16.5298L19.75 15.8098V19.9998C19.75 20.1987 19.671 20.3895 19.5304 20.5302C19.3897 20.6708 19.1989 20.7498 19 20.7498C18.8011 20.7498 18.6104 20.6708 18.4697 20.5302C18.329 20.3895 18.25 20.1987 18.25 19.9998V15.8098L17.53 16.5298C17.4614 16.6035 17.3786 16.6626 17.2866 16.7036C17.1946 16.7446 17.0953 16.7666 16.9946 16.7684C16.8939 16.7702 16.7938 16.7517 16.7004 16.714C16.607 16.6762 16.5222 16.6201 16.451 16.5489C16.3798 16.4776 16.3236 16.3928 16.2859 16.2994C16.2482 16.206 16.2297 16.106 16.2314 16.0053C16.2332 15.9046 16.2553 15.8053 16.2962 15.7133C16.3372 15.6213 16.3963 15.5385 16.47 15.4698L18.47 13.4698Z" fill="#42E00B"/>
<path d="M10 4H14C17.771 4 19.657 4 20.828 5.172C21.672 6.015 21.908 7.229 21.974 9.25H2.026C2.092 7.229 2.328 6.015 3.172 5.172C4.343 4 6.229 4 10 4Z" fill="#42E00B"/>
<path fill-rule="evenodd" clip-rule="evenodd" d="M10 20H14C15.056 20 15.964 20 16.75 19.974V18.236C16.3289 18.1889 15.9297 18.0239 15.5983 17.76C15.2669 17.496 15.0167 17.1438 14.8766 16.744C14.7365 16.3441 14.7122 15.9129 14.8063 15.4998C14.9005 15.0867 15.1094 14.7086 15.409 14.409L17.409 12.409C17.6179 12.2001 17.866 12.0343 18.139 11.9213C18.4119 11.8082 18.7045 11.75 19 11.75C19.2955 11.75 19.5881 11.8082 19.861 11.9213C20.134 12.0343 20.3821 12.2001 20.591 12.409L21.994 13.812C21.998 13.2627 22 12.6587 22 12C22 11.5587 21.9993 11.142 21.998 10.75H2.00201C2.00001 11.142 1.99934 11.5587 2.00001 12C2.00001 15.771 2.00001 17.657 3.17201 18.828C4.34401 19.999 6.22901 20 10 20ZM5.25001 16C5.25001 15.8011 5.32902 15.6103 5.46968 15.4697C5.61033 15.329 5.80109 15.25 6.00001 15.25H10C10.1989 15.25 10.3897 15.329 10.5303 15.4697C10.671 15.6103 10.75 15.8011 10.75 16C10.75 16.1989 10.671 16.3897 10.5303 16.5303C10.3897 16.671 10.1989 16.75 10 16.75H6.00001C5.80109 16.75 5.61033 16.671 5.46968 16.5303C5.32902 16.3897 5.25001 16.1989 5.25001 16ZM12.5 15.25C12.3011 15.25 12.1103 15.329 11.9697 15.4697C11.829 15.6103 11.75 15.8011 11.75 16C11.75 16.1989 11.829 16.3897 11.9697 16.5303C12.1103 16.671 12.3011 16.75 12.5 16.75H14C14.1989 16.75 14.3897 16.671 14.5303 16.5303C14.671 16.3897 14.75 16.1989 14.75 16C14.75 15.8011 14.671 15.6103 14.5303 15.4697C14.3897 15.329 14.1989 15.25 14 15.25H12.5Z" fill="#42E00B"/>
</svg>
