<svg width="19" height="19" viewBox="0 0 19 19" fill="none" xmlns="http://www.w3.org/2000/svg">
<path d="M19 6.49682C19.0004 7.78042 18.6207 9.03541 17.9089 10.1035C17.197 11.1717 16.1849 12.0051 15 12.4988V12.4968C15 10.2425 14.1045 8.08047 12.5104 6.48641C10.9163 4.89235 8.75434 3.99682 6.5 3.99682H6.498C7.07681 2.61056 8.11779 1.46748 9.44401 0.761878C10.7702 0.0562707 12.2999 -0.168334 13.773 0.126235C15.246 0.420805 16.5717 1.21637 17.5246 2.37773C18.4775 3.53909 18.9988 4.99457 19 6.49682ZM4.5 0.49682C3.43913 0.49682 2.42172 0.918247 1.67157 1.66839C0.921427 2.41854 0.5 3.43595 0.5 4.49682V5.99682H2.5V4.49682C2.5 3.96639 2.71071 3.45768 3.08579 3.08261C3.46086 2.70753 3.96957 2.49682 4.5 2.49682H6V0.49682H4.5ZM16.5 12.9968V14.4968C16.5 15.0273 16.2893 15.536 15.9142 15.911C15.5391 16.2861 15.0304 16.4968 14.5 16.4968H13V18.4968H14.5C15.5609 18.4968 16.5783 18.0754 17.3284 17.3252C18.0786 16.5751 18.5 15.5577 18.5 14.4968V12.9968H16.5ZM6.5 18.9968C8.22391 18.9968 9.87721 18.312 11.0962 17.093C12.3152 15.874 13 14.2207 13 12.4968C13 10.7729 12.3152 9.11961 11.0962 7.90063C9.87721 6.68164 8.22391 5.99682 6.5 5.99682C4.77609 5.99682 3.12279 6.68164 1.90381 7.90063C0.684819 9.11961 0 10.7729 0 12.4968C0 14.2207 0.684819 15.874 1.90381 17.093C3.12279 18.312 4.77609 18.9968 6.5 18.9968ZM6.5 9.99682L9 12.4968L6.5 14.9968L4 12.4968L6.5 9.99682Z" fill="#775CE7"/>
</svg>
