<svg width="29" height="23" viewBox="0 0 29 23" fill="none" xmlns="http://www.w3.org/2000/svg">
<path d="M18.6867 13.4625V14.4757C18.6867 15.1409 18.5557 15.7996 18.3011 16.4142C18.0465 17.0288 17.6734 17.5873 17.203 18.0577C16.7326 18.5281 16.1742 18.9012 15.5596 19.1558C14.945 19.4103 14.2863 19.5414 13.621 19.5414H10.3182C10.3026 20.0954 10.1358 20.6347 9.83575 21.1007C9.53575 21.5668 9.114 21.942 8.61615 22.1856C8.20093 22.3931 7.74297 22.5007 7.27881 22.4997C6.59218 22.5038 5.9244 22.2752 5.38425 21.8513L1.62551 18.9031C1.25943 18.619 0.963163 18.2549 0.759352 17.8388C0.555541 17.4226 0.449585 16.9653 0.449585 16.502C0.449585 16.0386 0.555541 15.5813 0.759352 15.1651C0.963163 14.749 1.25943 14.3849 1.62551 14.1008L5.38425 11.1526C5.83711 10.7912 6.38386 10.5667 6.96005 10.5057C7.53624 10.4446 8.11788 10.5496 8.63641 10.8081C9.32689 11.1384 9.85866 11.7284 10.1156 12.4494H17.6432C17.7788 12.4453 17.9138 12.4685 18.0402 12.5176C18.1667 12.5667 18.282 12.6407 18.3793 12.7352C18.4766 12.8297 18.554 12.9427 18.6068 13.0677C18.6596 13.1926 18.6868 13.3269 18.6867 13.4625Z" fill="#A7AEBF"/>
<path d="M28.5546 6.51266C28.5547 6.97599 28.4489 7.43321 28.2452 7.84937C28.0415 8.26553 27.7453 8.62961 27.3794 8.91379L23.6207 11.862C23.073 12.2876 22.3994 12.5192 21.7058 12.5206C21.2417 12.5215 20.7837 12.4139 20.3685 12.2065C19.678 11.8762 19.1462 11.2862 18.8893 10.5652H11.3313C11.0626 10.5652 10.8049 10.4585 10.6149 10.2685C10.4249 10.0785 10.3182 9.82077 10.3182 9.55207V8.53893C10.3182 7.19543 10.8519 5.90695 11.8019 4.95695C12.7519 4.00695 14.0404 3.47325 15.3839 3.47325H18.6867C18.699 2.90686 18.8694 2.35518 19.1786 1.88048C19.4878 1.40578 19.9236 1.02695 20.4366 0.78674C20.9497 0.546529 21.5197 0.4545 22.0823 0.521037C22.6449 0.587574 23.1778 0.81003 23.6207 1.1633L27.3794 4.11153C27.7453 4.3957 28.0415 4.75979 28.2452 5.17595C28.4489 5.5921 28.5547 6.04932 28.5546 6.51266Z" fill="#A7AEBF"/>
</svg>
